<svg width="100" height="100" viewBox="0 0 100 100" fill="none" xmlns="http://www.w3.org/2000/svg">
<circle cx="50" cy="50" r="50" fill="#5865F2"/>
<path d="M70.7925 30.883C66.9683 29.1283 62.8675 27.8355 58.5797 27.095C58.5017 27.0807 58.4237 27.1165 58.3834 27.1879C57.856 28.1259 57.2718 29.3497 56.8627 30.3115C52.251 29.6211 47.663 29.6211 43.1458 30.3115C42.7366 29.3283 42.1312 28.1259 41.6014 27.1879C41.5612 27.1188 41.4832 27.0831 41.4051 27.095C37.1198 27.8331 33.0189 29.1259 29.1923 30.883C29.1592 30.8972 29.1308 30.9211 29.112 30.952C21.3335 42.5729 19.2026 53.9082 20.248 65.1029C20.2527 65.1577 20.2834 65.2101 20.326 65.2434C25.458 69.0122 30.4293 71.3002 35.3082 72.8168C35.3863 72.8406 35.469 72.8121 35.5187 72.7477C36.6728 71.1717 37.7016 69.5099 38.5837 67.7623C38.6357 67.6599 38.5861 67.5385 38.4797 67.498C36.8478 66.879 35.294 66.1243 33.7993 65.2672C33.6811 65.1981 33.6716 65.029 33.7804 64.9481C34.0949 64.7124 34.4095 64.4672 34.7099 64.2196C34.7642 64.1743 34.8399 64.1648 34.9038 64.1934C44.7232 68.6765 55.3539 68.6765 65.0574 64.1934C65.1213 64.1624 65.197 64.172 65.2537 64.2172C65.5541 64.4648 65.8686 64.7124 66.1856 64.9481C66.2943 65.029 66.2872 65.1981 66.169 65.2672C64.6743 66.1409 63.1205 66.879 61.4863 67.4956C61.3799 67.5361 61.3326 67.6599 61.3846 67.7623C62.2856 69.5074 63.3144 71.1692 64.4472 72.7454C64.4946 72.8121 64.5797 72.8406 64.6577 72.8168C69.5603 71.3002 74.5315 69.0122 79.6636 65.2434C79.7085 65.2101 79.7369 65.16 79.7417 65.1053C80.9927 52.1629 77.6462 40.9206 70.8705 30.9544C70.854 30.9211 70.8257 30.8972 70.7925 30.883ZM40.0501 58.2865C37.0937 58.2865 34.6578 55.5724 34.6578 52.2392C34.6578 48.9059 37.0465 46.1918 40.0501 46.1918C43.0772 46.1918 45.4895 48.9298 45.4422 52.2392C45.4422 55.5724 43.0535 58.2865 40.0501 58.2865ZM59.9869 58.2865C57.0306 58.2865 54.5947 55.5724 54.5947 52.2392C54.5947 48.9059 56.9833 46.1918 59.9869 46.1918C63.0141 46.1918 65.4263 48.9298 65.3791 52.2392C65.3791 55.5724 63.0141 58.2865 59.9869 58.2865Z" fill="white"/>
</svg>
