<svg width="100" height="100" viewBox="0 0 100 100" fill="none" xmlns="http://www.w3.org/2000/svg">
<circle cx="50" cy="50" r="50" fill="#2E5586"/>
<g clip-path="url(#clip0_7:14)">
<path d="M32.4698 48.5665C32.4698 48.2314 32.5359 47.8996 32.6644 47.5902C32.7929 47.2807 32.9812 46.9997 33.2186 46.7633C33.456 46.5269 33.7377 46.3398 34.0476 46.2126C34.3575 46.0855 34.6895 46.0208 35.0244 46.0224L39.2597 46.0363C39.935 46.0363 40.5826 46.3046 41.0602 46.7823C41.5377 47.26 41.8059 47.9079 41.8059 48.5834V64.6044C42.283 64.463 42.8949 64.3123 43.5652 64.1549C44.0307 64.0454 44.4454 63.7817 44.7423 63.4068C45.0392 63.0319 45.2008 62.5676 45.201 62.0893V42.2166C45.2009 41.541 45.4691 40.893 45.9467 40.4152C46.4242 39.9374 47.0718 39.6689 47.7472 39.6688H51.9911C52.6664 39.669 53.3141 39.9375 53.7916 40.4153C54.2691 40.8931 54.5373 41.541 54.5373 42.2166V60.6612C54.5373 60.6612 55.5993 60.2309 56.6346 59.7939C57.019 59.6312 57.3471 59.3589 57.5778 59.0109C57.8086 58.663 57.9318 58.2547 57.9321 57.8372V35.8476C57.9321 35.5131 57.9979 35.1819 58.1259 34.8729C58.2538 34.5638 58.4413 34.2831 58.6777 34.0465C58.9141 33.81 59.1948 33.6224 59.5037 33.4944C59.8125 33.3663 60.1436 33.3004 60.478 33.3004H64.7218C65.3971 33.3004 66.0448 33.5688 66.5224 34.0464C66.9999 34.5241 67.2682 35.172 67.2683 35.8476V53.9548C70.9474 51.2875 74.6762 48.0792 77.6352 44.2215C78.0645 43.6616 78.3486 43.004 78.4621 42.3075C78.5756 41.611 78.515 40.8973 78.2857 40.2299C76.2836 34.3929 72.5281 29.317 67.5327 25.6963C62.5374 22.0755 56.546 20.0867 50.3778 20.0017C33.7449 19.7781 19.9986 33.3607 20.0003 50.0018C19.9839 55.2676 21.3578 60.4443 23.9829 65.0086C24.3449 65.6328 24.8775 66.1408 25.5181 66.4728C26.1587 66.8048 26.8807 66.947 27.5993 66.8827C28.4022 66.812 29.4017 66.7121 30.59 66.5726C31.1072 66.5137 31.5847 66.2666 31.9315 65.8783C32.2784 65.49 32.4703 64.9876 32.4708 64.4669V48.5665" fill="white"/>
<path d="M32.3775 74.2608C36.8507 77.5162 42.1369 79.4702 47.6513 79.9066C53.1657 80.3431 58.6933 79.245 63.6226 76.7339C68.5519 74.2228 72.6907 70.3965 75.5811 65.6784C78.4715 60.9602 80.0009 55.5342 80 50.0005C80 49.3097 79.968 48.6267 79.9218 47.9474C68.9661 64.2924 48.7375 71.9347 32.3773 74.2614" fill="#BFCFDA"/>
</g>
<defs>
<clipPath id="clip0_7:14">
<rect width="60" height="60" fill="white" transform="translate(20 20)"/>
</clipPath>
</defs>
</svg>
