<?xml version="1.0" encoding="iso-8859-1"?>
<!-- Generator: Adobe Illustrator 19.0.0, SVG Export Plug-In . SVG Version: 6.00 Build 0)  -->
<svg version="1.1" id="Layer_1" xmlns="http://www.w3.org/2000/svg" xmlns:xlink="http://www.w3.org/1999/xlink" x="0px" y="0px"
	 viewBox="0 0 512 512" style="enable-background:new 0 0 512 512;" xml:space="preserve">
<path style="fill:#FF4F19;" d="M256,0C114.512,0,0,114.497,0,256c0,141.488,114.497,256,256,256c141.488,0,256-114.497,256-256
	C512,114.512,397.503,0,256,0z M238.933,477.217c-108.761-8.313-195.838-95.389-204.15-204.15h85.749
	c7.724,61.668,56.735,110.677,118.402,118.402V477.217z M238.933,356.97c-42.816-7.214-76.69-41.087-83.903-83.903h83.903V356.97z
	 M238.933,238.933H155.03c7.214-42.816,41.087-76.69,83.903-83.903V238.933z M238.933,120.532
	c-61.666,7.724-110.677,56.735-118.402,118.402H34.783c8.313-108.761,95.389-195.838,204.15-204.15V120.532z M273.067,34.783
	c108.761,8.313,195.838,95.389,204.15,204.15h-85.749c-7.724-61.666-56.735-110.677-118.402-118.402V34.783z M273.067,155.03
	c42.816,7.214,76.69,41.087,83.903,83.903h-83.903V155.03z M273.067,273.067h83.903c-7.215,42.816-41.089,76.69-83.903,83.903
	L273.067,273.067L273.067,273.067z M273.067,477.217v-85.749c61.666-7.724,110.677-56.734,118.402-118.402h85.749
	C468.904,381.828,381.828,468.904,273.067,477.217z"/>
<path style="fill:#FC0023;" d="M256,0v512c141.488,0,256-114.497,256-256C512,114.512,397.503,0,256,0z M273.067,34.783
	c108.761,8.313,195.838,95.389,204.15,204.15h-85.749c-7.724-61.666-56.735-110.677-118.402-118.402V34.783z M273.067,155.03
	c42.816,7.214,76.69,41.087,83.903,83.903h-83.903V155.03z M273.067,273.067h83.903c-7.215,42.816-41.089,76.69-83.903,83.903
	L273.067,273.067L273.067,273.067z M273.067,477.217v-85.749c61.666-7.724,110.677-56.735,118.402-118.402h85.749
	C468.904,381.828,381.828,468.904,273.067,477.217z"/>
<g>
</g>
<g>
</g>
<g>
</g>
<g>
</g>
<g>
</g>
<g>
</g>
<g>
</g>
<g>
</g>
<g>
</g>
<g>
</g>
<g>
</g>
<g>
</g>
<g>
</g>
<g>
</g>
<g>
</g>
</svg>
