<svg width="100" height="100" viewBox="0 0 100 100" fill="none" xmlns="http://www.w3.org/2000/svg">
<path d="M50 100C77.6142 100 100 77.6142 100 50C100 22.3858 77.6142 0 50 0C22.3858 0 0 22.3858 0 50C0 77.6142 22.3858 100 50 100Z" fill="#1B9DF0"/>
<path d="M40.85 76.375C63.025 76.375 75.15 58 75.15 42.075C75.15 41.55 75.15 41.025 75.125 40.525C77.475 38.825 79.525 36.7 81.15 34.275C79 35.225 76.675 35.875 74.225 36.175C76.725 34.675 78.625 32.325 79.525 29.5C77.2 30.875 74.625 31.875 71.875 32.425C69.675 30.075 66.55 28.625 63.075 28.625C56.425 28.625 51.025 34.025 51.025 40.675C51.025 41.625 51.125 42.55 51.35 43.425C41.325 42.925 32.45 38.125 26.5 30.825C25.475 32.6 24.875 34.675 24.875 36.875C24.875 41.05 27 44.75 30.25 46.9C28.275 46.85 26.425 46.3 24.8 45.4C24.8 45.45 24.8 45.5 24.8 45.55C24.8 51.4 28.95 56.25 34.475 57.375C33.475 57.65 32.4 57.8 31.3 57.8C30.525 57.8 29.775 57.725 29.025 57.575C30.55 62.375 35 65.85 40.275 65.95C36.15 69.175 30.95 71.1 25.3 71.1C24.325 71.1 23.375 71.05 22.425 70.925C27.7 74.375 34.05 76.375 40.85 76.375Z" fill="white"/>
</svg>
