<svg width="100" height="100" viewBox="0 0 100 100" fill="none" xmlns="http://www.w3.org/2000/svg">
<path d="M100 50C100 77.6127 77.6127 100 50 100C22.3873 100 0 77.6127 0 50C0 22.3873 22.3873 0 50 0C77.6185 0 100 22.3873 100 50Z" fill="white"/>
<path d="M50 80C33.431 80 20 66.569 20 50C20 33.431 33.431 20 50 20C66.569 20 80 33.431 80 50C80 66.569 66.569 80 50 80ZM43.13 73.001C40.1702 66.7229 38.4556 59.9306 38.081 53H26.186C26.7698 57.6167 28.6818 61.9645 31.6897 65.5151C34.6976 69.0657 38.672 71.6664 43.13 73.001V73.001ZM44.09 53C44.543 60.317 46.634 67.19 50 73.256C53.457 67.0297 55.4763 60.1084 55.91 53H44.09V53ZM73.814 53H61.919C61.5444 59.9306 59.8298 66.7229 56.87 73.001C61.328 71.6664 65.3024 69.0657 68.3103 65.5151C71.3182 61.9645 73.2302 57.6167 73.814 53V53ZM26.186 47H38.081C38.4556 40.0694 40.1702 33.2771 43.13 26.999C38.672 28.3336 34.6976 30.9343 31.6897 34.4849C28.6818 38.0355 26.7698 42.3833 26.186 47V47ZM44.093 47H55.907C55.4743 39.8918 53.4559 32.9706 50 26.744C46.543 32.9703 44.5237 39.8916 44.09 47H44.093ZM56.87 26.999C59.8298 33.2771 61.5444 40.0694 61.919 47H73.814C73.2302 42.3833 71.3182 38.0355 68.3103 34.4849C65.3024 30.9343 61.328 28.3336 56.87 26.999V26.999Z" fill="#6366F1"/>
</svg>
